<svg width="502" height="502" viewBox="0 0 502 502" fill="none" xmlns="http://www.w3.org/2000/svg">
<path d="M380.893 274.625L208.895 425.1C188.627 442.858 156.875 428.426 156.875 401.474V100.525C156.87 94.4938 158.603 88.5885 161.868 83.5167C165.133 78.4449 169.79 74.4217 175.282 71.9287C180.775 69.4358 186.869 68.5789 192.836 69.4606C198.803 70.3423 204.389 72.9252 208.926 76.9001L380.861 227.375C384.231 230.319 386.932 233.951 388.783 238.026C390.633 242.101 391.591 246.525 391.591 251C391.591 255.475 390.633 259.899 388.783 263.974C386.932 268.049 384.231 271.68 380.861 274.625H380.893Z" fill="white"/>
</svg>
